<?xml version="1.0" standalone="no"?>
<!DOCTYPE svg PUBLIC "-//W3C//DTD SVG 20010904//EN"
 "http://www.w3.org/TR/2001/REC-SVG-20010904/DTD/svg10.dtd">
<svg version="1.0" xmlns="http://www.w3.org/2000/svg"
 width="230.000000pt" height="230.000000pt" viewBox="0 0 230.000000 230.000000"
 preserveAspectRatio="xMidYMid meet">

<g transform="translate(0.000000,230.000000) scale(0.100000,-0.100000)"
fill="#000000" stroke="none">
<path d="M975 2130 c-82 -8 -217 -41 -238 -58 -7 -5 -27 -13 -44 -17 -18 -3
-35 -10 -38 -15 -3 -5 -33 -24 -68 -43 -83 -47 -218 -177 -274 -263 -7 -10
-24 -36 -38 -57 -13 -21 -28 -50 -31 -65 -4 -15 -12 -34 -19 -42 -8 -8 -17
-33 -20 -55 -4 -22 -14 -53 -22 -69 -22 -42 -22 -429 -1 -471 8 -17 18 -43 22
-60 4 -16 15 -48 25 -70 10 -22 21 -47 25 -55 24 -56 116 -185 168 -237 64
-63 199 -163 220 -163 7 0 27 -9 44 -19 17 -10 46 -22 65 -26 19 -4 43 -13 54
-20 11 -7 67 -16 124 -20 97 -7 103 -6 99 11 -2 14 -16 21 -51 26 -27 3 -54
11 -60 16 -7 5 -33 12 -59 14 -41 5 -114 32 -158 59 -8 5 -29 15 -46 23 -84
38 -243 211 -260 284 -4 15 -12 34 -19 42 -13 15 -28 86 -50 244 -10 73 -10
99 2 150 8 33 19 84 25 111 6 28 16 57 23 65 7 8 16 26 20 40 8 27 56 92 114
153 38 40 39 41 60 28 11 -7 10 -13 -9 -32 -12 -13 -28 -38 -36 -56 -7 -17
-17 -33 -21 -35 -5 -1 -17 -25 -27 -53 -27 -68 -34 -287 -12 -348 8 -23 17
-58 21 -78 3 -21 12 -42 20 -49 8 -7 15 -17 15 -23 0 -16 65 -110 102 -146 18
-18 47 -40 63 -48 17 -7 50 -27 75 -43 25 -15 55 -29 68 -29 12 -1 48 -10 79
-21 74 -26 110 -26 118 0 10 30 0 37 -63 42 -32 3 -76 15 -97 27 -22 11 -45
21 -51 21 -6 0 -39 30 -72 66 -42 46 -62 77 -67 102 -3 20 -13 48 -22 61 -20
32 -20 211 1 244 8 12 17 33 21 47 8 28 103 130 121 130 6 0 17 6 23 14 7 8
27 18 44 21 18 4 40 14 49 22 13 11 52 17 145 22 123 6 128 7 140 31 17 32 14
643 -3 660 -14 14 -122 19 -219 10z"/>
<path d="M1268 1933 c-39 -10 -15 -23 45 -23 40 -1 76 -7 102 -20 22 -11 50
-19 62 -20 26 0 193 -85 209 -106 6 -8 14 -14 18 -14 26 0 186 -192 186 -223
0 -12 9 -35 20 -52 11 -16 20 -42 20 -57 0 -15 8 -47 18 -70 25 -62 25 -299
-1 -343 -9 -16 -17 -42 -17 -57 0 -27 -38 -109 -65 -138 -8 -9 -15 -21 -15
-26 0 -17 -104 -112 -130 -119 -14 -4 -33 -17 -42 -29 -13 -16 -20 -18 -29 -9
-9 9 -2 22 31 55 67 68 78 84 129 201 29 67 30 252 1 312 -11 22 -20 54 -20
70 0 17 -9 44 -20 60 -11 17 -20 37 -20 45 0 8 -18 35 -40 59 -22 25 -40 48
-40 53 0 4 -5 8 -10 8 -6 0 -27 16 -47 35 -20 20 -48 38 -62 42 -14 3 -37 14
-50 25 -13 10 -38 18 -55 18 -17 0 -48 9 -69 20 -37 20 -127 28 -127 11 0 -19
50 -40 109 -47 36 -4 72 -14 85 -25 13 -11 27 -19 31 -19 29 0 135 -122 135
-156 0 -8 9 -31 20 -51 29 -54 29 -221 0 -278 -11 -22 -20 -47 -20 -57 0 -10
-9 -23 -20 -30 -11 -7 -20 -18 -20 -24 0 -18 -135 -104 -164 -104 -9 0 -31 -8
-49 -17 -21 -12 -67 -19 -134 -23 -60 -4 -108 -12 -117 -19 -14 -12 -16 -55
-16 -330 0 -182 4 -322 10 -331 14 -23 200 -21 258 3 23 9 59 17 80 17 20 0
51 9 67 20 17 11 42 20 57 20 15 0 30 5 34 11 3 6 21 18 38 26 81 37 179 113
250 192 17 19 39 41 49 50 9 8 17 21 17 27 0 6 9 22 19 36 31 39 101 177 101
199 0 11 9 41 21 66 19 42 21 65 21 237 0 172 -2 195 -21 236 -11 25 -21 56
-21 70 0 14 -9 39 -20 55 -11 17 -20 37 -20 46 0 9 -9 26 -20 39 -11 13 -20
28 -20 35 0 7 -9 20 -20 30 -11 10 -20 23 -20 30 0 22 -143 172 -191 200 -10
6 -37 24 -62 42 -25 17 -56 34 -69 38 -12 4 -32 14 -43 21 -11 8 -28 14 -39
14 -10 0 -33 8 -50 19 -31 19 -188 35 -228 24z m362 -1333 c0 -5 -4 -10 -10
-10 -5 0 -10 5 -10 10 0 6 5 10 10 10 6 0 10 -4 10 -10z"/>
</g>
</svg>
